<svg id="Слой_1" data-name="Слой 1" xmlns="http://www.w3.org/2000/svg" viewBox="0 0 26.11 24" fill="#afafb6"><defs><style></style></defs><circle class="cls-1" cx="2.58" cy="2.58" r="2.58"/><rect class="cls-1" x="0.57" y="8.01" width="4.02" height="15.99"/><path class="cls-1" d="M14.3,28h0A2.63,2.63,0,0,0,17,25.37V18.54a2.56,2.56,0,0,1,1.1-2.14,3.91,3.91,0,0,1,4.66.1,2.56,2.56,0,0,1,1.06,2.11v6.15C23.8,26.83,25,28,26.43,28h0a2.63,2.63,0,0,0,2.63-2.63V17.54a7.23,7.23,0,0,0-.26-1.92c-.94-2-4.59-7.92-11.82-2.06V12H14.3a2.63,2.63,0,0,0-2.63,2.63V25.37A2.63,2.63,0,0,0,14.3,28Z" transform="translate(-2.94 -4)"/></svg>